custom-analysis
version=1
nRows=4
nColumns=98
inDegrees=no

This file contains tibia displacement and acting force.

Units are S.I. units (seconds, meters, Newtons, ...)
Angles are in degrees.

endheader
time	APT	SIT	knee_angle	aACL_R_force	pACL_R_force	aPCL_R_force	pPCL_R_force	aMCL_R_force	mMCL_R_force	pMCL_R_force	aLCL_R_force	mLCL_R_force	pLCL_R_force	aPCL_L_force	pPCL_L_force	aMCL_L_force	aLCL_L_force	aACL_R_length	pACL_R_length	aPCL_R_length	pPCL_R_length	aMCL_R_length	mMCL_R_length	pMCL_R_length	aLCL_R_length	mLCL_R_length	pLCL_R_length	aPCL_L_length	pPCL_L_length	aMCL_L_length	aLCL_L_length	aACL_R_strain	pACL_R_strain	aPCL_R_strain	pPCL_R_strain	aMCL_R_strain	mMCL_R_strain	pMCL_R_strain	aLCL_R_strain	mLCL_R_strain	pLCL_R_strain	aPCL_L_strain	pPCL_L_strain	aMCL_L_strain	aLCL_L_strain	femur_lat_meniscii_r.femur_lat_r.force.X	femur_lat_meniscii_r.femur_lat_r.force.Y	femur_lat_meniscii_r.femur_lat_r.force.Z	femur_lat_meniscii_r.femur_lat_r.torque.X	femur_lat_meniscii_r.femur_lat_r.torque.Y	femur_lat_meniscii_r.femur_lat_r.torque.Z	femur_lat_meniscii_r.meniscus_lat_r.force.X	femur_lat_meniscii_r.meniscus_lat_r.force.Y	femur_lat_meniscii_r.meniscus_lat_r.force.Z	femur_lat_meniscii_r.meniscus_lat_r.torque.X	femur_lat_meniscii_r.meniscus_lat_r.torque.Y	femur_lat_meniscii_r.meniscus_lat_r.torque.Z	femur_med_meniscii_r.femur_med_r.force.X	femur_med_meniscii_r.femur_med_r.force.Y	femur_med_meniscii_r.femur_med_r.force.Z	femur_med_meniscii_r.femur_med_r.torque.X	femur_med_meniscii_r.femur_med_r.torque.Y	femur_med_meniscii_r.femur_med_r.torque.Z	femur_med_meniscii_r.meniscus_med_r.force.X	femur_med_meniscii_r.meniscus_med_r.force.Y	femur_med_meniscii_r.meniscus_med_r.force.Z	femur_med_meniscii_r.meniscus_med_r.torque.X	femur_med_meniscii_r.meniscus_med_r.torque.Y	femur_med_meniscii_r.meniscus_med_r.torque.Z	femur_med_tibia_r.tibia_upper_r.force.X	femur_med_tibia_r.tibia_upper_r.force.Y	femur_med_tibia_r.tibia_upper_r.force.Z	femur_med_tibia_r.tibia_upper_r.torque.X	femur_med_tibia_r.tibia_upper_r.torque.Y	femur_med_tibia_r.tibia_upper_r.torque.Z	femur_med_tibia_r.femur_med_r.force.X	femur_med_tibia_r.femur_med_r.force.Y	femur_med_tibia_r.femur_med_r.force.Z	femur_med_tibia_r.femur_med_r.torque.X	femur_med_tibia_r.femur_med_r.torque.Y	femur_med_tibia_r.femur_med_r.torque.Z	femur_lat_tibia_r.tibia_upper_r.force.X	femur_lat_tibia_r.tibia_upper_r.force.Y	femur_lat_tibia_r.tibia_upper_r.force.Z	femur_lat_tibia_r.tibia_upper_r.torque.X	femur_lat_tibia_r.tibia_upper_r.torque.Y	femur_lat_tibia_r.tibia_upper_r.torque.Z	femur_lat_tibia_r.femur_lat_r.force.X	femur_lat_tibia_r.femur_lat_r.force.Y	femur_lat_tibia_r.femur_lat_r.force.Z	femur_lat_tibia_r.femur_lat_r.torque.X	femur_lat_tibia_r.femur_lat_r.torque.Y	femur_lat_tibia_r.femur_lat_r.torque.Z	femur_lat_meniscii_force_r	femur_med_meniscii_force_r	femur_lat_tibia_force_r	femur_med_tibia_force_r
      0.13290150	      0.01415329	      0.01554621	     52.87965896	      5.74365351	      0.00000000	    430.70454399	    208.36180218	      0.00000000	      0.00000000	      0.00000000	      0.00000000	      0.00000000	      0.00000000	      0.00000000	      0.00000000	      0.00000001	      0.00000000	      0.03140812	      0.02392966	      0.03409544	      0.03131065	      0.05981202	      0.05932955	      0.05642314	      0.05341290	      0.04883331	      0.04417323	      0.01525851	      0.01651186	      0.06550154	      0.04489616	      0.01298548	     -0.04505573	      0.09648198	      0.04760651	     -0.00358142	     -0.00775924	     -0.03924633	     -0.04580980	     -0.13290966	     -0.15607667	      0.00000079	     -0.32847694	      0.00000060	     -0.00000086	     54.62697426	    137.83665189	     -7.07355483	     -0.18927185	      1.17719885	     20.86000099	    -54.62697426	   -137.83665189	      7.07355483	      3.24626348	     -1.16273072	      3.03017105	    115.80038963	    189.45030728	     -8.10900598	      7.42470303	     -2.52352763	     45.22829090	   -115.80038963	   -189.45030728	      8.10900598	     -3.84691007	      2.41610817	      3.35462662	   -334.66342715	   -656.57724977	     79.03816653	    -13.87856330	      8.26948425	     10.09605892	    334.66342715	    656.57724977	    -79.03816653	     45.97619128	     -7.46484643	    132.49592620	      0.00000000	      0.00000000	      0.00000000	      0.00000000	      0.00000000	      0.00000000	      0.00000000	      0.00000000	      0.00000000	      0.00000000	      0.00000000	      0.00000000	    148.43545432	    222.18664484	      0.00000000	    741.17496326
      0.13306580	      0.01416804	      0.01558183	     52.98300874	      5.79264622	      0.00000000	    432.72560219	    209.46079362	      0.00000000	      0.00000000	      0.00000000	      0.00000000	      0.00000000	      0.00000000	      0.00000000	      0.00000000	      0.00000001	      0.00000000	      0.03141001	      0.02393165	      0.03410679	      0.03131726	      0.05982176	      0.05933075	      0.05641761	      0.05340736	      0.04882329	      0.04416023	      0.01525851	      0.01651186	      0.06550154	      0.04489616	      0.01304645	     -0.04497653	      0.09684701	      0.04782739	     -0.00341920	     -0.00773922	     -0.03934059	     -0.04590866	     -0.13308769	     -0.15632491	      0.00000079	     -0.32847694	      0.00000060	     -0.00000086	     54.54486736	    137.76281996	     -7.24987665	     -0.11500963	      1.17323928	     20.82313362	    -54.54486736	   -137.76281996	      7.24987665	      3.24059297	     -1.15493554	      3.04018331	    117.21822119	    189.40397856	     -8.61406461	      7.63113642	     -2.55310293	     45.80005145	   -117.21822119	   -189.40397856	      8.61406461	     -3.85737779	      2.45249386	      3.34022491	   -336.23914655	   -656.82022313	     79.06143999	    -13.87528556	      8.30006472	     10.11481902	    336.23914655	    656.82022313	    -79.06143999	     45.98648340	     -7.49676273	    133.12399311	      0.00000000	      0.00000000	      0.00000000	      0.00000000	      0.00000000	      0.00000000	      0.00000000	      0.00000000	      0.00000000	      0.00000000	      0.00000000	      0.00000000	    148.34519820	    222.90845785	      0.00000000	    742.10530282
      0.13330715	      0.01418961	      0.01563420	     53.13491063	      5.87432322	      0.00000000	    435.67954880	    211.03788607	      0.00000000	      0.00000000	      0.00000000	      0.00000000	      0.00000000	      0.00000000	      0.00000000	      0.00000000	      0.00000001	      0.00000000	      0.03141282	      0.02393462	      0.03412347	      0.03132698	      0.05983609	      0.05933256	      0.05640956	      0.05339920	      0.04880854	      0.04414115	      0.01525851	      0.01651186	      0.06550154	      0.04489616	      0.01313694	     -0.04485801	      0.09738347	      0.04815260	     -0.00318035	     -0.00770891	     -0.03947759	     -0.04605451	     -0.13334958	     -0.15668950	      0.00000079	     -0.32847694	      0.00000060	     -0.00000086	     54.55824440	    137.88691796	     -7.14791960	     -0.16005512	      1.17293563	     20.82165464	    -54.55824440	   -137.88691796	      7.14791960	      3.24734361	     -1.15656102	      3.05870408	    118.17173192	    188.94813985	     -8.81355292	      7.69240887	     -2.56904108	     46.18623550	   -118.17173192	   -188.94813985	      8.81355292	     -3.84143907	      2.47019619	      3.32832656	   -338.69695204	   -657.02059466	     78.97595133	    -13.86402712	      8.34425877	     10.13303526	    338.69695204	    657.02059466	    -78.97595133	     45.94855136	     -7.54569937	    134.10834893	      0.00000000	      0.00000000	      0.00000000	      0.00000000	      0.00000000	      0.00000000	      0.00000000	      0.00000000	      0.00000000	      0.00000000	      0.00000000	      0.00000000	    148.46042210	    223.03281483	      0.00000000	    743.39013177
      0.13382920	      0.01423595	      0.01574772	     53.46382491	      5.98586576	      0.00000000	    441.90619883	    214.05755398	      0.00000000	      0.00000000	      0.00000000	      0.00000000	      0.00000000	      0.00000000	      0.00000000	      0.00000000	      0.00000001	      0.00000000	      0.03141899	      0.02394124	      0.03415947	      0.03134799	      0.05986716	      0.05933661	      0.05639242	      0.05338130	      0.04877646	      0.04409979	      0.01525851	      0.01651186	      0.06550154	      0.04489616	      0.01333602	     -0.04459365	      0.09854137	      0.04885556	     -0.00266274	     -0.00764117	     -0.03976939	     -0.04637426	     -0.13391925	     -0.15747971	      0.00000079	     -0.32847694	      0.00000060	     -0.00000086	     54.64217139	    135.75470567	     -7.57064795	      0.05679442	      1.16838629	     20.86943377	    -54.64217139	   -135.75470567	      7.57064795	      3.19091083	     -1.14333674	      3.02049785	    115.48870876	    185.69456882	     -8.65750787	      7.55503699	     -2.51033641	     45.11151533	   -115.48870876	   -185.69456882	      8.65750787	     -3.76960250	      2.41456295	      3.33086978	   -344.10552592	   -657.34306242	     79.24476703	    -13.85084596	      8.45474940	     10.16889994	    344.10552592	    657.34306242	    -79.24476703	     46.05314643	     -7.65767133	    136.27538544	      0.00000000	      0.00000000	      0.00000000	      0.00000000	      0.00000000	      0.00000000	      0.00000000	      0.00000000	      0.00000000	      0.00000000	      0.00000000	      0.00000000	    146.53471165	    218.84941668	      0.00000000	    746.18244939
